<svg id="Layer_1" data-name="Layer 1" xmlns="http://www.w3.org/2000/svg" viewBox="0 0 216 26"><defs><style>.cls-1{fill:#fff;}</style></defs><path class="cls-1" d="M162.31,25.34h5.06V23.11h-2.3V10.55h2.3V8.32h-5.06v2.53a7.63,7.63,0,0,0-6.18-3c-4.83,0-8.41,3.88-8.41,9s3.58,9,8.41,9a7.63,7.63,0,0,0,6.18-3Zm-17-4.57h-2.76a5.73,5.73,0,0,1-5.29,2.77c-3.85,0-5.92-2.34-6.18-5.79h14.62V16.53c0-5.19-3.32-8.71-8.54-8.71s-8.91,3.72-8.91,9,3.65,9,8.91,9a8.47,8.47,0,0,0,8.15-5.07M109.42,11V3h2.47V.69H104.1V3h2.46V23H104.1v2.3h7.79V23h-2.47V13.21h12.36V23h-2.46v2.3h7.79V23h-2.47V3h2.47V.69h-7.79V3h2.46v8ZM194,23.11h-2.3V15.48c0-3.55,1.81-5.32,5-5.32,2.86,0,4.7,1.77,4.7,5.32v7.63h-2.3v2.23h7.36V23.11h-2.3V15.48c0-4.24-2.53-7.66-7.13-7.66a6.44,6.44,0,0,0-5.33,2.4V.69h-5.06V2.93H189V23.11h-2.3v2.23H194Zm-43.49-6.28c0-3.88,2.47-6.67,6-6.67s5.92,2.86,5.92,6.67-2.4,6.67-5.92,6.67-6-2.79-6-6.67m-13.37-6.71c3.61,0,5.49,2.57,5.78,5.43H131.09a5.71,5.71,0,0,1,6.08-5.43m44.5,10.82V10.55h3.45V8.32h-3.45V4h-2.76V8.32h-2.63v2.23h2.63V21.07c0,3,1.35,4.5,4.54,4.5a6.67,6.67,0,0,0,1.67-.23V23.11a7.32,7.32,0,0,1-1.41.13c-1.38,0-2-.49-2-2.3m-6.83,4.63a5.66,5.66,0,0,0,1.54-.23V23.11a5.58,5.58,0,0,1-1.22.13c-1.18,0-1.74-.63-1.74-2.47V.69h-5.06V2.93h2.3v18c0,3.05,1.22,4.66,4.18,4.66"/><path class="cls-1" d="M87.53,17.62c.4,1.84,1.45,2.5,3.62,2.5,1.91,0,3-.69,3-1.78,0-1.54-1.42-1.67-4.34-2.43-3.42-.89-5.62-1.64-6.64-2.37A6.54,6.54,0,0,1,80.3,7.86C80.3,3.09,84.05,0,90.59,0c6.34,0,10.09,2.79,10.52,7.76H93.65c-.27-1.48-1.29-2.17-3.19-2.17-1.68,0-2.5.56-2.5,1.67,0,1.32,1.28,1.55,3.65,2.17,3.06.79,5.49,1.29,7,2.34a6.37,6.37,0,0,1,3.16,5.75c0,5.36-3.85,8.48-11,8.48-6.61,0-10.49-3.12-11-8.38Z"/><path class="cls-1" d="M58.51,15.74C58.08,22.22,53.81,26,46.74,26c-7.85,0-12.65-5-12.65-13S38.92,0,46.58,0c7.13,0,11.34,3.62,11.8,10H50.85a3.77,3.77,0,0,0-4.17-3.81C43.59,6.18,42,8.45,42,13s1.68,6.8,4.87,6.8c2.4,0,3.91-1.45,4.14-4.08Z"/><polygon class="cls-1" points="56.83 0.69 64.89 0.69 69.03 16.6 73.47 0.69 81.22 0.69 72.94 25.31 65.08 25.31 56.83 0.69"/><path class="cls-1" d="M8.81,0A3.63,3.63,0,0,0,6.23,1.1L1.07,6.27a3.64,3.64,0,0,0,0,5.16L15.64,26,30.21,11.43a3.65,3.65,0,0,0,0-5.16L25.05,1.11a3.63,3.63,0,0,0-5.17,0L15.64,5.35,11.39,1.11A3.62,3.62,0,0,0,8.81,0Z"/><path class="cls-1" d="M211.82,25.53a3.65,3.65,0,0,1-3.73-3.79,3.72,3.72,0,1,1,7.44,0A3.67,3.67,0,0,1,211.82,25.53Zm0-6.93a3,3,0,0,0-2.92,3.14,2.92,2.92,0,1,0,5.82,0A3,3,0,0,0,211.82,18.6Zm-.75,5.31h-.69v-4.2H212c1,0,1.53.35,1.53,1.21a1.06,1.06,0,0,1-1.09,1.14l1.17,1.85h-.78l-1.08-1.8h-.65Zm.77-2.39c.52,0,1-.05,1-.65s-.49-.57-.91-.57h-.83v1.22Z"/></svg>